<mxfile host="app.diagrams.net" agent="Mozilla/5.0 (Windows NT 10.0; Win64; x64) AppleWebKit/537.36 (KHTML, like Gecko) Chrome/141.0.0.0 Safari/537.36" version="28.2.5">
  <diagram name="Страница — 1" id="HvyJ5lEFoI_HXDBO44Z_">
    <mxGraphModel dx="1426" dy="823" grid="1" gridSize="10" guides="1" tooltips="1" connect="1" arrows="1" fold="1" page="0" pageScale="1" pageWidth="827" pageHeight="1169" math="0" shadow="0">
      <root>
        <mxCell id="0" />
        <mxCell id="1" parent="0" />
        <mxCell id="X6hddK7yL3USRvo6f97l-33" value="" style="endArrow=none;dashed=1;html=1;rounded=0;opacity=40;" parent="1" edge="1">
          <mxGeometry width="50" height="50" relative="1" as="geometry">
            <mxPoint x="200" y="120" as="sourcePoint" />
            <mxPoint x="200" y="480" as="targetPoint" />
          </mxGeometry>
        </mxCell>
        <mxCell id="X6hddK7yL3USRvo6f97l-34" value="" style="endArrow=none;dashed=1;html=1;rounded=0;opacity=40;" parent="1" edge="1">
          <mxGeometry width="50" height="50" relative="1" as="geometry">
            <mxPoint x="479.99664123535155" y="120" as="sourcePoint" />
            <mxPoint x="480" y="480" as="targetPoint" />
          </mxGeometry>
        </mxCell>
        <mxCell id="X6hddK7yL3USRvo6f97l-35" value="" style="endArrow=none;dashed=1;html=1;rounded=0;opacity=40;" parent="1" edge="1">
          <mxGeometry width="50" height="50" relative="1" as="geometry">
            <mxPoint x="519.9966412353515" y="120" as="sourcePoint" />
            <mxPoint x="520" y="480" as="targetPoint" />
          </mxGeometry>
        </mxCell>
        <mxCell id="X6hddK7yL3USRvo6f97l-36" value="" style="endArrow=none;dashed=1;html=1;rounded=0;opacity=40;" parent="1" edge="1">
          <mxGeometry width="50" height="50" relative="1" as="geometry">
            <mxPoint x="959.9966412353516" y="120" as="sourcePoint" />
            <mxPoint x="960" y="480" as="targetPoint" />
          </mxGeometry>
        </mxCell>
        <mxCell id="X6hddK7yL3USRvo6f97l-37" value="" style="endArrow=none;dashed=1;html=1;rounded=0;opacity=40;" parent="1" edge="1">
          <mxGeometry width="50" height="50" relative="1" as="geometry">
            <mxPoint x="919.9966412353516" y="120" as="sourcePoint" />
            <mxPoint x="920" y="480" as="targetPoint" />
          </mxGeometry>
        </mxCell>
        <mxCell id="X6hddK7yL3USRvo6f97l-38" value="" style="endArrow=none;dashed=1;html=1;rounded=0;opacity=40;" parent="1" edge="1">
          <mxGeometry width="50" height="50" relative="1" as="geometry">
            <mxPoint x="879.9966412353516" y="120" as="sourcePoint" />
            <mxPoint x="880" y="480" as="targetPoint" />
          </mxGeometry>
        </mxCell>
        <mxCell id="X6hddK7yL3USRvo6f97l-39" value="" style="endArrow=none;dashed=1;html=1;rounded=0;opacity=40;" parent="1" edge="1">
          <mxGeometry width="50" height="50" relative="1" as="geometry">
            <mxPoint x="838.9966412353516" y="120" as="sourcePoint" />
            <mxPoint x="840" y="480" as="targetPoint" />
          </mxGeometry>
        </mxCell>
        <mxCell id="X6hddK7yL3USRvo6f97l-40" value="" style="endArrow=none;dashed=1;html=1;rounded=0;opacity=40;" parent="1" edge="1">
          <mxGeometry width="50" height="50" relative="1" as="geometry">
            <mxPoint x="799.9966412353516" y="120" as="sourcePoint" />
            <mxPoint x="800" y="480" as="targetPoint" />
          </mxGeometry>
        </mxCell>
        <mxCell id="X6hddK7yL3USRvo6f97l-41" value="" style="endArrow=none;dashed=1;html=1;rounded=0;opacity=40;" parent="1" edge="1">
          <mxGeometry width="50" height="50" relative="1" as="geometry">
            <mxPoint x="759.9966412353515" y="120" as="sourcePoint" />
            <mxPoint x="760" y="480" as="targetPoint" />
          </mxGeometry>
        </mxCell>
        <mxCell id="X6hddK7yL3USRvo6f97l-42" value="" style="endArrow=none;dashed=1;html=1;rounded=0;opacity=40;" parent="1" edge="1">
          <mxGeometry width="50" height="50" relative="1" as="geometry">
            <mxPoint x="719.9966412353515" y="120" as="sourcePoint" />
            <mxPoint x="720" y="480" as="targetPoint" />
          </mxGeometry>
        </mxCell>
        <mxCell id="X6hddK7yL3USRvo6f97l-43" value="" style="endArrow=none;dashed=1;html=1;rounded=0;opacity=40;" parent="1" edge="1">
          <mxGeometry width="50" height="50" relative="1" as="geometry">
            <mxPoint x="679.9966412353515" y="120" as="sourcePoint" />
            <mxPoint x="680" y="480" as="targetPoint" />
          </mxGeometry>
        </mxCell>
        <mxCell id="X6hddK7yL3USRvo6f97l-44" value="" style="endArrow=none;dashed=1;html=1;rounded=0;opacity=40;" parent="1" edge="1">
          <mxGeometry width="50" height="50" relative="1" as="geometry">
            <mxPoint x="639.9966412353515" y="120" as="sourcePoint" />
            <mxPoint x="640" y="480" as="targetPoint" />
          </mxGeometry>
        </mxCell>
        <mxCell id="X6hddK7yL3USRvo6f97l-45" value="" style="endArrow=none;dashed=1;html=1;rounded=0;opacity=40;" parent="1" edge="1">
          <mxGeometry width="50" height="50" relative="1" as="geometry">
            <mxPoint x="598.9966412353515" y="120" as="sourcePoint" />
            <mxPoint x="600" y="480" as="targetPoint" />
          </mxGeometry>
        </mxCell>
        <mxCell id="X6hddK7yL3USRvo6f97l-46" value="" style="endArrow=none;dashed=1;html=1;rounded=0;opacity=40;" parent="1" edge="1">
          <mxGeometry width="50" height="50" relative="1" as="geometry">
            <mxPoint x="559.9966412353516" y="120" as="sourcePoint" />
            <mxPoint x="560" y="480" as="targetPoint" />
          </mxGeometry>
        </mxCell>
        <mxCell id="X6hddK7yL3USRvo6f97l-51" value="" style="endArrow=none;dashed=1;html=1;rounded=0;opacity=40;" parent="1" edge="1">
          <mxGeometry width="50" height="50" relative="1" as="geometry">
            <mxPoint x="999.9966412353516" y="120" as="sourcePoint" />
            <mxPoint x="1000" y="480" as="targetPoint" />
          </mxGeometry>
        </mxCell>
        <mxCell id="X6hddK7yL3USRvo6f97l-52" value="" style="endArrow=none;dashed=1;html=1;rounded=0;opacity=40;" parent="1" edge="1">
          <mxGeometry width="50" height="50" relative="1" as="geometry">
            <mxPoint x="359.99664123535155" y="120" as="sourcePoint" />
            <mxPoint x="360" y="480" as="targetPoint" />
          </mxGeometry>
        </mxCell>
        <mxCell id="X6hddK7yL3USRvo6f97l-53" value="" style="endArrow=none;dashed=1;html=1;rounded=0;opacity=40;" parent="1" edge="1">
          <mxGeometry width="50" height="50" relative="1" as="geometry">
            <mxPoint x="399.99664123535155" y="120" as="sourcePoint" />
            <mxPoint x="400" y="480" as="targetPoint" />
          </mxGeometry>
        </mxCell>
        <mxCell id="X6hddK7yL3USRvo6f97l-54" value="" style="endArrow=none;dashed=1;html=1;rounded=0;opacity=40;" parent="1" edge="1">
          <mxGeometry width="50" height="50" relative="1" as="geometry">
            <mxPoint x="439.99664123535155" y="120" as="sourcePoint" />
            <mxPoint x="440" y="480" as="targetPoint" />
          </mxGeometry>
        </mxCell>
        <mxCell id="X6hddK7yL3USRvo6f97l-55" value="" style="endArrow=none;dashed=1;html=1;rounded=0;opacity=40;" parent="1" edge="1">
          <mxGeometry width="50" height="50" relative="1" as="geometry">
            <mxPoint x="1159.9966412353515" y="120" as="sourcePoint" />
            <mxPoint x="1160" y="480" as="targetPoint" />
          </mxGeometry>
        </mxCell>
        <mxCell id="X6hddK7yL3USRvo6f97l-56" value="" style="endArrow=none;dashed=1;html=1;rounded=0;opacity=40;" parent="1" edge="1">
          <mxGeometry width="50" height="50" relative="1" as="geometry">
            <mxPoint x="1199.9966412353515" y="120" as="sourcePoint" />
            <mxPoint x="1200" y="480" as="targetPoint" />
          </mxGeometry>
        </mxCell>
        <mxCell id="X6hddK7yL3USRvo6f97l-57" value="" style="endArrow=none;dashed=1;html=1;rounded=0;opacity=40;" parent="1" edge="1">
          <mxGeometry width="50" height="50" relative="1" as="geometry">
            <mxPoint x="1119.9966412353515" y="120" as="sourcePoint" />
            <mxPoint x="1120" y="480" as="targetPoint" />
          </mxGeometry>
        </mxCell>
        <mxCell id="X6hddK7yL3USRvo6f97l-58" value="" style="endArrow=none;dashed=1;html=1;rounded=0;opacity=40;" parent="1" edge="1">
          <mxGeometry width="50" height="50" relative="1" as="geometry">
            <mxPoint x="1079.9966412353515" y="120" as="sourcePoint" />
            <mxPoint x="1080" y="480" as="targetPoint" />
          </mxGeometry>
        </mxCell>
        <mxCell id="X6hddK7yL3USRvo6f97l-59" value="" style="endArrow=none;dashed=1;html=1;rounded=0;opacity=40;" parent="1" edge="1">
          <mxGeometry width="50" height="50" relative="1" as="geometry">
            <mxPoint x="1039.9966412353515" y="120" as="sourcePoint" />
            <mxPoint x="1040" y="480" as="targetPoint" />
          </mxGeometry>
        </mxCell>
        <mxCell id="X6hddK7yL3USRvo6f97l-61" value="" style="endArrow=none;dashed=1;html=1;rounded=0;opacity=40;" parent="1" edge="1">
          <mxGeometry width="50" height="50" relative="1" as="geometry">
            <mxPoint x="1439.9966412353515" y="120" as="sourcePoint" />
            <mxPoint x="1440" y="480" as="targetPoint" />
          </mxGeometry>
        </mxCell>
        <mxCell id="X6hddK7yL3USRvo6f97l-62" value="" style="endArrow=none;dashed=1;html=1;rounded=0;opacity=40;" parent="1" edge="1">
          <mxGeometry width="50" height="50" relative="1" as="geometry">
            <mxPoint x="1399.9966412353515" y="120" as="sourcePoint" />
            <mxPoint x="1400" y="480" as="targetPoint" />
          </mxGeometry>
        </mxCell>
        <mxCell id="X6hddK7yL3USRvo6f97l-63" value="" style="endArrow=none;dashed=1;html=1;rounded=0;opacity=40;" parent="1" edge="1">
          <mxGeometry width="50" height="50" relative="1" as="geometry">
            <mxPoint x="1359.9966412353515" y="120" as="sourcePoint" />
            <mxPoint x="1360" y="480" as="targetPoint" />
          </mxGeometry>
        </mxCell>
        <mxCell id="X6hddK7yL3USRvo6f97l-64" value="" style="endArrow=none;dashed=1;html=1;rounded=0;opacity=40;" parent="1" edge="1">
          <mxGeometry width="50" height="50" relative="1" as="geometry">
            <mxPoint x="1319.9966412353515" y="120" as="sourcePoint" />
            <mxPoint x="1320" y="480" as="targetPoint" />
          </mxGeometry>
        </mxCell>
        <mxCell id="X6hddK7yL3USRvo6f97l-65" value="" style="endArrow=none;dashed=1;html=1;rounded=0;opacity=40;" parent="1" edge="1">
          <mxGeometry width="50" height="50" relative="1" as="geometry">
            <mxPoint x="1279.9966412353515" y="120" as="sourcePoint" />
            <mxPoint x="1280" y="480" as="targetPoint" />
          </mxGeometry>
        </mxCell>
        <mxCell id="X6hddK7yL3USRvo6f97l-66" value="" style="endArrow=none;dashed=1;html=1;rounded=0;opacity=40;" parent="1" edge="1">
          <mxGeometry width="50" height="50" relative="1" as="geometry">
            <mxPoint x="1239.9966412353515" y="120" as="sourcePoint" />
            <mxPoint x="1240" y="480" as="targetPoint" />
          </mxGeometry>
        </mxCell>
        <mxCell id="X6hddK7yL3USRvo6f97l-67" value="" style="endArrow=none;dashed=1;html=1;rounded=0;opacity=40;" parent="1" edge="1">
          <mxGeometry width="50" height="50" relative="1" as="geometry">
            <mxPoint x="1479.9966412353515" y="120" as="sourcePoint" />
            <mxPoint x="1480" y="480" as="targetPoint" />
          </mxGeometry>
        </mxCell>
        <mxCell id="X6hddK7yL3USRvo6f97l-68" value="" style="endArrow=none;html=1;rounded=0;" parent="1" edge="1">
          <mxGeometry width="50" height="50" relative="1" as="geometry">
            <mxPoint x="200" y="280" as="sourcePoint" />
            <mxPoint x="240" y="280" as="targetPoint" />
          </mxGeometry>
        </mxCell>
        <mxCell id="X6hddK7yL3USRvo6f97l-69" value="" style="endArrow=none;html=1;rounded=0;" parent="1" edge="1">
          <mxGeometry width="50" height="50" relative="1" as="geometry">
            <mxPoint x="240" y="360" as="sourcePoint" />
            <mxPoint x="240" y="280" as="targetPoint" />
          </mxGeometry>
        </mxCell>
        <mxCell id="X6hddK7yL3USRvo6f97l-70" value="" style="endArrow=none;html=1;rounded=0;" parent="1" edge="1">
          <mxGeometry width="50" height="50" relative="1" as="geometry">
            <mxPoint x="240" y="360" as="sourcePoint" />
            <mxPoint x="280" y="360" as="targetPoint" />
          </mxGeometry>
        </mxCell>
        <mxCell id="X6hddK7yL3USRvo6f97l-71" value="" style="endArrow=none;html=1;rounded=0;" parent="1" edge="1">
          <mxGeometry width="50" height="50" relative="1" as="geometry">
            <mxPoint x="280" y="320" as="sourcePoint" />
            <mxPoint x="280" y="360" as="targetPoint" />
          </mxGeometry>
        </mxCell>
        <mxCell id="X6hddK7yL3USRvo6f97l-72" value="" style="endArrow=none;html=1;rounded=0;" parent="1" edge="1">
          <mxGeometry width="50" height="50" relative="1" as="geometry">
            <mxPoint x="280" y="320" as="sourcePoint" />
            <mxPoint x="520" y="320" as="targetPoint" />
          </mxGeometry>
        </mxCell>
        <mxCell id="X6hddK7yL3USRvo6f97l-75" value="" style="endArrow=none;html=1;rounded=0;" parent="1" edge="1">
          <mxGeometry width="50" height="50" relative="1" as="geometry">
            <mxPoint x="520" y="280" as="sourcePoint" />
            <mxPoint x="520" y="320" as="targetPoint" />
          </mxGeometry>
        </mxCell>
        <mxCell id="X6hddK7yL3USRvo6f97l-76" value="" style="endArrow=none;html=1;rounded=0;" parent="1" edge="1">
          <mxGeometry width="50" height="50" relative="1" as="geometry">
            <mxPoint x="520" y="280" as="sourcePoint" />
            <mxPoint x="560" y="280" as="targetPoint" />
          </mxGeometry>
        </mxCell>
        <mxCell id="X6hddK7yL3USRvo6f97l-77" value="" style="endArrow=none;html=1;rounded=0;" parent="1" edge="1">
          <mxGeometry width="50" height="50" relative="1" as="geometry">
            <mxPoint x="560" y="280" as="sourcePoint" />
            <mxPoint x="560" y="360" as="targetPoint" />
          </mxGeometry>
        </mxCell>
        <mxCell id="X6hddK7yL3USRvo6f97l-78" value="" style="endArrow=none;html=1;rounded=0;" parent="1" edge="1">
          <mxGeometry width="50" height="50" relative="1" as="geometry">
            <mxPoint x="560" y="360" as="sourcePoint" />
            <mxPoint x="600" y="360" as="targetPoint" />
          </mxGeometry>
        </mxCell>
        <mxCell id="X6hddK7yL3USRvo6f97l-80" value="" style="endArrow=none;html=1;rounded=0;" parent="1" edge="1">
          <mxGeometry width="50" height="50" relative="1" as="geometry">
            <mxPoint x="600" y="360" as="sourcePoint" />
            <mxPoint x="600" y="280" as="targetPoint" />
          </mxGeometry>
        </mxCell>
        <mxCell id="X6hddK7yL3USRvo6f97l-81" value="" style="endArrow=none;html=1;rounded=0;" parent="1" edge="1">
          <mxGeometry width="50" height="50" relative="1" as="geometry">
            <mxPoint x="640" y="280" as="sourcePoint" />
            <mxPoint x="640" y="320" as="targetPoint" />
          </mxGeometry>
        </mxCell>
        <mxCell id="X6hddK7yL3USRvo6f97l-82" value="" style="endArrow=none;html=1;rounded=0;" parent="1" edge="1">
          <mxGeometry width="50" height="50" relative="1" as="geometry">
            <mxPoint x="640" y="320" as="sourcePoint" />
            <mxPoint x="680" y="320" as="targetPoint" />
          </mxGeometry>
        </mxCell>
        <mxCell id="X6hddK7yL3USRvo6f97l-83" value="" style="endArrow=none;html=1;rounded=0;" parent="1" edge="1">
          <mxGeometry width="50" height="50" relative="1" as="geometry">
            <mxPoint x="840" y="320" as="sourcePoint" />
            <mxPoint x="840" y="280" as="targetPoint" />
          </mxGeometry>
        </mxCell>
        <mxCell id="X6hddK7yL3USRvo6f97l-84" value="" style="endArrow=none;html=1;rounded=0;" parent="1" edge="1">
          <mxGeometry width="50" height="50" relative="1" as="geometry">
            <mxPoint x="880" y="280" as="sourcePoint" />
            <mxPoint x="840" y="280" as="targetPoint" />
          </mxGeometry>
        </mxCell>
        <mxCell id="X6hddK7yL3USRvo6f97l-85" value="" style="endArrow=none;html=1;rounded=0;" parent="1" edge="1">
          <mxGeometry width="50" height="50" relative="1" as="geometry">
            <mxPoint x="880" y="360" as="sourcePoint" />
            <mxPoint x="880" y="280" as="targetPoint" />
          </mxGeometry>
        </mxCell>
        <mxCell id="X6hddK7yL3USRvo6f97l-86" value="" style="endArrow=none;html=1;rounded=0;" parent="1" edge="1">
          <mxGeometry width="50" height="50" relative="1" as="geometry">
            <mxPoint x="920" y="360" as="sourcePoint" />
            <mxPoint x="880" y="360" as="targetPoint" />
          </mxGeometry>
        </mxCell>
        <mxCell id="X6hddK7yL3USRvo6f97l-87" value="" style="endArrow=none;html=1;rounded=0;" parent="1" edge="1">
          <mxGeometry width="50" height="50" relative="1" as="geometry">
            <mxPoint x="920" y="320" as="sourcePoint" />
            <mxPoint x="920" y="360" as="targetPoint" />
          </mxGeometry>
        </mxCell>
        <mxCell id="X6hddK7yL3USRvo6f97l-88" value="" style="endArrow=none;html=1;rounded=0;" parent="1" edge="1">
          <mxGeometry width="50" height="50" relative="1" as="geometry">
            <mxPoint x="1080" y="320" as="sourcePoint" />
            <mxPoint x="920" y="320" as="targetPoint" />
          </mxGeometry>
        </mxCell>
        <mxCell id="X6hddK7yL3USRvo6f97l-93" value="" style="endArrow=none;html=1;rounded=0;" parent="1" edge="1">
          <mxGeometry width="50" height="50" relative="1" as="geometry">
            <mxPoint x="1160" y="360" as="sourcePoint" />
            <mxPoint x="1160" y="280" as="targetPoint" />
          </mxGeometry>
        </mxCell>
        <mxCell id="X6hddK7yL3USRvo6f97l-94" value="" style="endArrow=none;html=1;rounded=0;" parent="1" edge="1">
          <mxGeometry width="50" height="50" relative="1" as="geometry">
            <mxPoint x="1200" y="280" as="sourcePoint" />
            <mxPoint x="1160" y="280" as="targetPoint" />
          </mxGeometry>
        </mxCell>
        <mxCell id="X6hddK7yL3USRvo6f97l-95" value="" style="endArrow=none;html=1;rounded=0;" parent="1" edge="1">
          <mxGeometry width="50" height="50" relative="1" as="geometry">
            <mxPoint x="1200" y="280" as="sourcePoint" />
            <mxPoint x="1200" y="360" as="targetPoint" />
          </mxGeometry>
        </mxCell>
        <mxCell id="X6hddK7yL3USRvo6f97l-96" value="" style="endArrow=none;html=1;rounded=0;" parent="1" edge="1">
          <mxGeometry width="50" height="50" relative="1" as="geometry">
            <mxPoint x="1200" y="360" as="sourcePoint" />
            <mxPoint x="1240" y="360" as="targetPoint" />
          </mxGeometry>
        </mxCell>
        <mxCell id="X6hddK7yL3USRvo6f97l-97" value="" style="endArrow=none;html=1;rounded=0;" parent="1" edge="1">
          <mxGeometry width="50" height="50" relative="1" as="geometry">
            <mxPoint x="1240" y="360" as="sourcePoint" />
            <mxPoint x="1240" y="320" as="targetPoint" />
          </mxGeometry>
        </mxCell>
        <mxCell id="X6hddK7yL3USRvo6f97l-98" value="" style="endArrow=none;html=1;rounded=0;" parent="1" edge="1">
          <mxGeometry width="50" height="50" relative="1" as="geometry">
            <mxPoint x="1400" y="320" as="sourcePoint" />
            <mxPoint x="1240" y="320" as="targetPoint" />
          </mxGeometry>
        </mxCell>
        <mxCell id="X6hddK7yL3USRvo6f97l-101" value="" style="endArrow=none;html=1;rounded=0;" parent="1" edge="1">
          <mxGeometry width="50" height="50" relative="1" as="geometry">
            <mxPoint x="1400" y="280" as="sourcePoint" />
            <mxPoint x="1400" y="320" as="targetPoint" />
          </mxGeometry>
        </mxCell>
        <mxCell id="X6hddK7yL3USRvo6f97l-102" value="" style="endArrow=none;html=1;rounded=0;" parent="1" edge="1">
          <mxGeometry width="50" height="50" relative="1" as="geometry">
            <mxPoint x="1480" y="320" as="sourcePoint" />
            <mxPoint x="1440" y="320" as="targetPoint" />
          </mxGeometry>
        </mxCell>
        <mxCell id="75GMgPccs6c3wuDK95FV-1" value="&lt;font style=&quot;font-size: 24px;&quot;&gt;1&lt;/font&gt;" style="text;html=1;align=center;verticalAlign=middle;whiteSpace=wrap;rounded=0;strokeWidth=1;" vertex="1" parent="1">
          <mxGeometry x="190" y="210" width="60" height="30" as="geometry" />
        </mxCell>
        <mxCell id="75GMgPccs6c3wuDK95FV-2" value="&lt;font style=&quot;font-size: 24px;&quot;&gt;1&lt;/font&gt;" style="text;html=1;align=center;verticalAlign=middle;whiteSpace=wrap;rounded=0;fontSize=18;strokeWidth=1;" vertex="1" parent="1">
          <mxGeometry x="230" y="210" width="60" height="30" as="geometry" />
        </mxCell>
        <mxCell id="75GMgPccs6c3wuDK95FV-3" value="&lt;font style=&quot;font-size: 24px;&quot;&gt;0&lt;/font&gt;" style="text;html=1;align=center;verticalAlign=middle;whiteSpace=wrap;rounded=0;strokeWidth=1;" vertex="1" parent="1">
          <mxGeometry x="270" y="210" width="60" height="30" as="geometry" />
        </mxCell>
        <mxCell id="75GMgPccs6c3wuDK95FV-4" value="&lt;font style=&quot;font-size: 24px;&quot;&gt;0&lt;/font&gt;" style="text;html=1;align=center;verticalAlign=middle;whiteSpace=wrap;rounded=0;strokeWidth=1;" vertex="1" parent="1">
          <mxGeometry x="310" y="210" width="60" height="30" as="geometry" />
        </mxCell>
        <mxCell id="75GMgPccs6c3wuDK95FV-5" value="&lt;font style=&quot;font-size: 24px;&quot;&gt;0&lt;/font&gt;" style="text;html=1;align=center;verticalAlign=middle;whiteSpace=wrap;rounded=0;strokeWidth=1;" vertex="1" parent="1">
          <mxGeometry x="350" y="210" width="60" height="30" as="geometry" />
        </mxCell>
        <mxCell id="75GMgPccs6c3wuDK95FV-6" value="&lt;span style=&quot;font-size: 24px;&quot;&gt;0&lt;/span&gt;" style="text;html=1;align=center;verticalAlign=middle;whiteSpace=wrap;rounded=0;strokeWidth=1;" vertex="1" parent="1">
          <mxGeometry x="390" y="210" width="60" height="30" as="geometry" />
        </mxCell>
        <mxCell id="75GMgPccs6c3wuDK95FV-7" value="&lt;span style=&quot;font-size: 24px;&quot;&gt;0&lt;/span&gt;" style="text;html=1;align=center;verticalAlign=middle;whiteSpace=wrap;rounded=0;strokeWidth=1;" vertex="1" parent="1">
          <mxGeometry x="430" y="210" width="60" height="30" as="geometry" />
        </mxCell>
        <mxCell id="75GMgPccs6c3wuDK95FV-8" value="&lt;span style=&quot;font-size: 24px;&quot;&gt;0&lt;/span&gt;" style="text;html=1;align=center;verticalAlign=middle;whiteSpace=wrap;rounded=0;strokeWidth=1;" vertex="1" parent="1">
          <mxGeometry x="470" y="210" width="60" height="30" as="geometry" />
        </mxCell>
        <mxCell id="75GMgPccs6c3wuDK95FV-9" value="&lt;span style=&quot;font-size: 24px;&quot;&gt;1&lt;/span&gt;" style="text;html=1;align=center;verticalAlign=middle;whiteSpace=wrap;rounded=0;strokeWidth=1;" vertex="1" parent="1">
          <mxGeometry x="510" y="210" width="60" height="30" as="geometry" />
        </mxCell>
        <mxCell id="75GMgPccs6c3wuDK95FV-10" value="&lt;font style=&quot;font-size: 24px;&quot;&gt;1&lt;/font&gt;" style="text;html=1;align=center;verticalAlign=middle;whiteSpace=wrap;rounded=0;strokeWidth=1;" vertex="1" parent="1">
          <mxGeometry x="550" y="210" width="60" height="30" as="geometry" />
        </mxCell>
        <mxCell id="75GMgPccs6c3wuDK95FV-11" value="&lt;span style=&quot;font-size: 24px;&quot;&gt;1&lt;/span&gt;" style="text;html=1;align=center;verticalAlign=middle;whiteSpace=wrap;rounded=0;strokeWidth=1;" vertex="1" parent="1">
          <mxGeometry x="590" y="210" width="60" height="30" as="geometry" />
        </mxCell>
        <mxCell id="75GMgPccs6c3wuDK95FV-12" value="&lt;span style=&quot;font-size: 24px;&quot;&gt;0&lt;/span&gt;" style="text;html=1;align=center;verticalAlign=middle;whiteSpace=wrap;rounded=0;strokeWidth=1;" vertex="1" parent="1">
          <mxGeometry x="630" y="210" width="60" height="30" as="geometry" />
        </mxCell>
        <mxCell id="75GMgPccs6c3wuDK95FV-13" value="&lt;span style=&quot;font-size: 24px;&quot;&gt;1&lt;/span&gt;" style="text;html=1;align=center;verticalAlign=middle;whiteSpace=wrap;rounded=0;strokeWidth=1;" vertex="1" parent="1">
          <mxGeometry x="670" y="210" width="60" height="30" as="geometry" />
        </mxCell>
        <mxCell id="75GMgPccs6c3wuDK95FV-14" value="&lt;span style=&quot;font-size: 24px;&quot;&gt;1&lt;/span&gt;" style="text;html=1;align=center;verticalAlign=middle;whiteSpace=wrap;rounded=0;strokeWidth=1;" vertex="1" parent="1">
          <mxGeometry x="710" y="210" width="60" height="30" as="geometry" />
        </mxCell>
        <mxCell id="75GMgPccs6c3wuDK95FV-15" value="&lt;span style=&quot;font-size: 24px;&quot;&gt;0&lt;/span&gt;" style="text;html=1;align=center;verticalAlign=middle;whiteSpace=wrap;rounded=0;strokeWidth=1;" vertex="1" parent="1">
          <mxGeometry x="750" y="210" width="60" height="30" as="geometry" />
        </mxCell>
        <mxCell id="75GMgPccs6c3wuDK95FV-16" value="&lt;span style=&quot;font-size: 24px;&quot;&gt;1&lt;/span&gt;" style="text;html=1;align=center;verticalAlign=middle;whiteSpace=wrap;rounded=0;strokeWidth=1;" vertex="1" parent="1">
          <mxGeometry x="790" y="210" width="60" height="30" as="geometry" />
        </mxCell>
        <mxCell id="75GMgPccs6c3wuDK95FV-17" value="&lt;font style=&quot;font-size: 24px;&quot;&gt;1&lt;/font&gt;" style="text;html=1;align=center;verticalAlign=middle;whiteSpace=wrap;rounded=0;strokeWidth=1;" vertex="1" parent="1">
          <mxGeometry x="827" y="210" width="60" height="30" as="geometry" />
        </mxCell>
        <mxCell id="75GMgPccs6c3wuDK95FV-18" value="&lt;span style=&quot;font-size: 24px;&quot;&gt;1&lt;/span&gt;" style="text;html=1;align=center;verticalAlign=middle;whiteSpace=wrap;rounded=0;strokeWidth=1;" vertex="1" parent="1">
          <mxGeometry x="870" y="210" width="60" height="30" as="geometry" />
        </mxCell>
        <mxCell id="75GMgPccs6c3wuDK95FV-19" value="&lt;font style=&quot;font-size: 24px;&quot;&gt;0&lt;/font&gt;" style="text;html=1;align=center;verticalAlign=middle;whiteSpace=wrap;rounded=0;strokeWidth=1;" vertex="1" parent="1">
          <mxGeometry x="910" y="210" width="60" height="30" as="geometry" />
        </mxCell>
        <mxCell id="75GMgPccs6c3wuDK95FV-20" value="&lt;span style=&quot;font-size: 24px;&quot;&gt;0&lt;/span&gt;" style="text;html=1;align=center;verticalAlign=middle;whiteSpace=wrap;rounded=0;strokeWidth=1;" vertex="1" parent="1">
          <mxGeometry x="950" y="210" width="60" height="30" as="geometry" />
        </mxCell>
        <mxCell id="75GMgPccs6c3wuDK95FV-21" value="&lt;span style=&quot;font-size: 24px;&quot;&gt;0&lt;/span&gt;" style="text;html=1;align=center;verticalAlign=middle;whiteSpace=wrap;rounded=0;strokeWidth=1;" vertex="1" parent="1">
          <mxGeometry x="990" y="210" width="60" height="30" as="geometry" />
        </mxCell>
        <mxCell id="75GMgPccs6c3wuDK95FV-22" value="&lt;span style=&quot;font-size: 24px;&quot;&gt;0&lt;/span&gt;" style="text;html=1;align=center;verticalAlign=middle;whiteSpace=wrap;rounded=0;strokeWidth=1;" vertex="1" parent="1">
          <mxGeometry x="1030" y="210" width="60" height="30" as="geometry" />
        </mxCell>
        <mxCell id="75GMgPccs6c3wuDK95FV-23" value="&lt;span style=&quot;font-size: 24px;&quot;&gt;1&lt;/span&gt;" style="text;html=1;align=center;verticalAlign=middle;whiteSpace=wrap;rounded=0;strokeWidth=1;" vertex="1" parent="1">
          <mxGeometry x="1070" y="210" width="60" height="30" as="geometry" />
        </mxCell>
        <mxCell id="75GMgPccs6c3wuDK95FV-24" value="&lt;span style=&quot;font-size: 24px;&quot;&gt;1&lt;/span&gt;" style="text;html=1;align=center;verticalAlign=middle;whiteSpace=wrap;rounded=0;strokeWidth=1;" vertex="1" parent="1">
          <mxGeometry x="1110" y="210" width="60" height="30" as="geometry" />
        </mxCell>
        <mxCell id="75GMgPccs6c3wuDK95FV-25" value="&lt;span style=&quot;font-size: 24px;&quot;&gt;0&lt;/span&gt;" style="text;html=1;align=center;verticalAlign=middle;whiteSpace=wrap;rounded=0;strokeWidth=1;" vertex="1" parent="1">
          <mxGeometry x="1270" y="210" width="60" height="30" as="geometry" />
        </mxCell>
        <mxCell id="75GMgPccs6c3wuDK95FV-26" value="&lt;span style=&quot;font-size: 24px;&quot;&gt;0&lt;/span&gt;" style="text;html=1;align=center;verticalAlign=middle;whiteSpace=wrap;rounded=0;strokeWidth=1;" vertex="1" parent="1">
          <mxGeometry x="1230" y="210" width="60" height="30" as="geometry" />
        </mxCell>
        <mxCell id="75GMgPccs6c3wuDK95FV-27" value="&lt;font style=&quot;font-size: 24px;&quot;&gt;1&lt;/font&gt;" style="text;html=1;align=center;verticalAlign=middle;whiteSpace=wrap;rounded=0;strokeWidth=1;" vertex="1" parent="1">
          <mxGeometry x="1150" y="210" width="60" height="30" as="geometry" />
        </mxCell>
        <mxCell id="75GMgPccs6c3wuDK95FV-28" value="&lt;span style=&quot;font-size: 24px;&quot;&gt;1&lt;/span&gt;" style="text;html=1;align=center;verticalAlign=middle;whiteSpace=wrap;rounded=0;strokeWidth=1;" vertex="1" parent="1">
          <mxGeometry x="1190" y="210" width="60" height="30" as="geometry" />
        </mxCell>
        <mxCell id="75GMgPccs6c3wuDK95FV-29" value="&lt;span style=&quot;font-size: 24px;&quot;&gt;0&lt;/span&gt;" style="text;html=1;align=center;verticalAlign=middle;whiteSpace=wrap;rounded=0;strokeWidth=1;" vertex="1" parent="1">
          <mxGeometry x="1310" y="210" width="60" height="30" as="geometry" />
        </mxCell>
        <mxCell id="75GMgPccs6c3wuDK95FV-30" value="&lt;span style=&quot;font-size: 24px;&quot;&gt;0&lt;/span&gt;" style="text;html=1;align=center;verticalAlign=middle;whiteSpace=wrap;rounded=0;strokeWidth=1;" vertex="1" parent="1">
          <mxGeometry x="1350" y="210" width="60" height="30" as="geometry" />
        </mxCell>
        <mxCell id="75GMgPccs6c3wuDK95FV-31" value="&lt;span style=&quot;font-size: 24px;&quot;&gt;1&lt;/span&gt;" style="text;html=1;align=center;verticalAlign=middle;whiteSpace=wrap;rounded=0;strokeWidth=1;" vertex="1" parent="1">
          <mxGeometry x="1390" y="210" width="60" height="30" as="geometry" />
        </mxCell>
        <mxCell id="75GMgPccs6c3wuDK95FV-32" value="&lt;span style=&quot;font-size: 24px;&quot;&gt;0&lt;/span&gt;" style="text;html=1;align=center;verticalAlign=middle;whiteSpace=wrap;rounded=0;strokeWidth=1;" vertex="1" parent="1">
          <mxGeometry x="1430" y="210" width="60" height="30" as="geometry" />
        </mxCell>
        <mxCell id="75GMgPccs6c3wuDK95FV-33" value="" style="endArrow=none;html=1;rounded=0;" edge="1" parent="1">
          <mxGeometry width="50" height="50" relative="1" as="geometry">
            <mxPoint x="600" y="280" as="sourcePoint" />
            <mxPoint x="640" y="280" as="targetPoint" />
          </mxGeometry>
        </mxCell>
        <mxCell id="75GMgPccs6c3wuDK95FV-34" value="" style="endArrow=none;html=1;rounded=0;" edge="1" parent="1">
          <mxGeometry width="50" height="50" relative="1" as="geometry">
            <mxPoint x="680" y="320" as="sourcePoint" />
            <mxPoint x="680" y="360" as="targetPoint" />
          </mxGeometry>
        </mxCell>
        <mxCell id="75GMgPccs6c3wuDK95FV-35" value="" style="endArrow=none;html=1;rounded=0;" edge="1" parent="1">
          <mxGeometry width="50" height="50" relative="1" as="geometry">
            <mxPoint x="720" y="280" as="sourcePoint" />
            <mxPoint x="720" y="360" as="targetPoint" />
          </mxGeometry>
        </mxCell>
        <mxCell id="75GMgPccs6c3wuDK95FV-36" value="" style="endArrow=none;dashed=1;html=1;rounded=0;opacity=40;" edge="1" parent="1">
          <mxGeometry width="50" height="50" relative="1" as="geometry">
            <mxPoint x="240" y="120" as="sourcePoint" />
            <mxPoint x="240" y="480" as="targetPoint" />
          </mxGeometry>
        </mxCell>
        <mxCell id="75GMgPccs6c3wuDK95FV-37" value="" style="endArrow=none;dashed=1;html=1;rounded=0;opacity=40;" edge="1" parent="1">
          <mxGeometry width="50" height="50" relative="1" as="geometry">
            <mxPoint x="280" y="120" as="sourcePoint" />
            <mxPoint x="280" y="480" as="targetPoint" />
          </mxGeometry>
        </mxCell>
        <mxCell id="75GMgPccs6c3wuDK95FV-38" value="" style="endArrow=none;dashed=1;html=1;rounded=0;opacity=40;" edge="1" parent="1">
          <mxGeometry width="50" height="50" relative="1" as="geometry">
            <mxPoint x="320" y="120" as="sourcePoint" />
            <mxPoint x="320" y="480" as="targetPoint" />
          </mxGeometry>
        </mxCell>
        <mxCell id="75GMgPccs6c3wuDK95FV-39" value="" style="endArrow=none;html=1;rounded=0;" edge="1" parent="1">
          <mxGeometry width="50" height="50" relative="1" as="geometry">
            <mxPoint x="680" y="360" as="sourcePoint" />
            <mxPoint x="720" y="360" as="targetPoint" />
          </mxGeometry>
        </mxCell>
        <mxCell id="75GMgPccs6c3wuDK95FV-40" value="" style="endArrow=none;html=1;rounded=0;" edge="1" parent="1">
          <mxGeometry width="50" height="50" relative="1" as="geometry">
            <mxPoint x="720" y="280" as="sourcePoint" />
            <mxPoint x="760" y="280" as="targetPoint" />
          </mxGeometry>
        </mxCell>
        <mxCell id="75GMgPccs6c3wuDK95FV-41" value="" style="endArrow=none;html=1;rounded=0;" edge="1" parent="1">
          <mxGeometry width="50" height="50" relative="1" as="geometry">
            <mxPoint x="760" y="320" as="sourcePoint" />
            <mxPoint x="800" y="320" as="targetPoint" />
          </mxGeometry>
        </mxCell>
        <mxCell id="75GMgPccs6c3wuDK95FV-43" value="" style="endArrow=none;html=1;rounded=0;" edge="1" parent="1">
          <mxGeometry width="50" height="50" relative="1" as="geometry">
            <mxPoint x="760" y="320" as="sourcePoint" />
            <mxPoint x="760" y="280" as="targetPoint" />
          </mxGeometry>
        </mxCell>
        <mxCell id="75GMgPccs6c3wuDK95FV-44" value="" style="endArrow=none;html=1;rounded=0;" edge="1" parent="1">
          <mxGeometry width="50" height="50" relative="1" as="geometry">
            <mxPoint x="800" y="360" as="sourcePoint" />
            <mxPoint x="800" y="320" as="targetPoint" />
          </mxGeometry>
        </mxCell>
        <mxCell id="75GMgPccs6c3wuDK95FV-45" value="" style="endArrow=none;html=1;rounded=0;" edge="1" parent="1">
          <mxGeometry width="50" height="50" relative="1" as="geometry">
            <mxPoint x="800" y="360" as="sourcePoint" />
            <mxPoint x="840" y="360" as="targetPoint" />
          </mxGeometry>
        </mxCell>
        <mxCell id="75GMgPccs6c3wuDK95FV-46" value="" style="endArrow=none;html=1;rounded=0;" edge="1" parent="1">
          <mxGeometry width="50" height="50" relative="1" as="geometry">
            <mxPoint x="840" y="360" as="sourcePoint" />
            <mxPoint x="840" y="320" as="targetPoint" />
          </mxGeometry>
        </mxCell>
        <mxCell id="75GMgPccs6c3wuDK95FV-47" value="" style="endArrow=none;html=1;rounded=0;" edge="1" parent="1">
          <mxGeometry width="50" height="50" relative="1" as="geometry">
            <mxPoint x="1080" y="320" as="sourcePoint" />
            <mxPoint x="1080" y="280" as="targetPoint" />
          </mxGeometry>
        </mxCell>
        <mxCell id="75GMgPccs6c3wuDK95FV-48" value="" style="endArrow=none;html=1;rounded=0;" edge="1" parent="1">
          <mxGeometry width="50" height="50" relative="1" as="geometry">
            <mxPoint x="1120" y="360" as="sourcePoint" />
            <mxPoint x="1120" y="280" as="targetPoint" />
          </mxGeometry>
        </mxCell>
        <mxCell id="75GMgPccs6c3wuDK95FV-49" value="" style="endArrow=none;html=1;rounded=0;" edge="1" parent="1">
          <mxGeometry width="50" height="50" relative="1" as="geometry">
            <mxPoint x="1120" y="360" as="sourcePoint" />
            <mxPoint x="1160" y="360" as="targetPoint" />
          </mxGeometry>
        </mxCell>
        <mxCell id="75GMgPccs6c3wuDK95FV-50" value="" style="endArrow=none;html=1;rounded=0;" edge="1" parent="1">
          <mxGeometry width="50" height="50" relative="1" as="geometry">
            <mxPoint x="1080" y="280" as="sourcePoint" />
            <mxPoint x="1120" y="280" as="targetPoint" />
          </mxGeometry>
        </mxCell>
        <mxCell id="75GMgPccs6c3wuDK95FV-51" value="" style="endArrow=none;html=1;rounded=0;" edge="1" parent="1">
          <mxGeometry width="50" height="50" relative="1" as="geometry">
            <mxPoint x="1440" y="280" as="sourcePoint" />
            <mxPoint x="1400" y="280" as="targetPoint" />
          </mxGeometry>
        </mxCell>
        <mxCell id="75GMgPccs6c3wuDK95FV-52" value="" style="endArrow=none;html=1;rounded=0;" edge="1" parent="1">
          <mxGeometry width="50" height="50" relative="1" as="geometry">
            <mxPoint x="1440" y="280" as="sourcePoint" />
            <mxPoint x="1440" y="320" as="targetPoint" />
          </mxGeometry>
        </mxCell>
      </root>
    </mxGraphModel>
  </diagram>
</mxfile>
